<svg width="40" height="40" viewBox="0 0 40 40" fill="none" xmlns="http://www.w3.org/2000/svg">
<path d="M7.96876 4.03008e-07C3.56784 4.03008e-07 0 3.56767 0 7.96861V32.0314C0 36.4323 3.56784 40 7.96876 40H32.0312C36.4323 40 40 36.4323 40 32.0314V7.96861C40 3.56767 36.4323 4.03008e-07 32.0312 4.03008e-07H7.96876Z" fill="url(#paint0_linear_991_14815)"/>
<path fill-rule="evenodd" clip-rule="evenodd" d="M36.3761 25.9209C36.3761 27.539 35.0643 28.8508 33.4462 28.8508C31.8281 28.8508 30.5164 27.539 30.5164 25.9209C30.5164 24.3028 31.8281 22.9912 33.4462 22.9912C35.0643 22.9912 36.3761 24.3028 36.3761 25.9209Z" fill="white"/>
<path fill-rule="evenodd" clip-rule="evenodd" d="M5.68356 30.7503C5.68356 31.5486 5.03644 32.1956 4.23826 32.1956C3.4399 32.1956 2.79297 31.5486 2.79297 30.7503C2.79297 29.9519 3.4399 29.305 4.23826 29.305C5.03644 29.305 5.68356 29.9519 5.68356 30.7503Z" fill="#D64412"/>
<path fill-rule="evenodd" clip-rule="evenodd" d="M9.46737 31.9639C9.46737 32.7621 8.82025 33.4092 8.02208 33.4092C7.2239 33.4092 6.57678 32.7621 6.57678 31.9639C6.57678 31.1655 7.2239 30.5186 8.02208 30.5186C8.82025 30.5186 9.46737 31.1655 9.46737 31.9639Z" fill="#D64412"/>
<path fill-rule="evenodd" clip-rule="evenodd" d="M6.55807 34.1951C6.55807 34.9934 5.91095 35.6404 5.11277 35.6404C4.3146 35.6404 3.66748 34.9934 3.66748 34.1951C3.66748 33.3967 4.3146 32.7498 5.11277 32.7498C5.91095 32.7498 6.55807 33.3967 6.55807 34.1951Z" fill="#D64412"/>
<path fill-rule="evenodd" clip-rule="evenodd" d="M9.82455 35.6675C9.82455 36.4659 9.17743 37.1128 8.37925 37.1128C7.58108 37.1128 6.93396 36.4659 6.93396 35.6675C6.93396 34.8691 7.58108 34.2222 8.37925 34.2222C9.17743 34.2222 9.82455 34.8691 9.82455 35.6675Z" fill="#D64412"/>
<path fill-rule="evenodd" clip-rule="evenodd" d="M36.4969 11.6853C35.3766 11.2104 34.146 10.9478 32.8547 10.9478H7.76172L26.8219 1.65174C28.9554 0.611151 31.5272 1.49706 32.568 3.62992L36.4969 11.6853Z" fill="#8AC43E"/>
<path fill-rule="evenodd" clip-rule="evenodd" d="M37.2954 12.0696C37.036 11.929 36.7696 11.8009 36.4968 11.6851C35.3765 11.2102 34.1462 10.9477 32.8548 10.9477H7.75708L31.1345 5.11963C33.4369 4.54536 35.7688 5.94603 36.3429 8.2492L37.2954 12.0696Z" fill="#209245"/>
<path d="M40 14.1889V18.575C39.2454 15.3281 36.3283 12.9007 32.8548 12.9007H6.33127C5.77036 12.9007 5.31567 12.4459 5.31567 11.885C5.31567 11.324 5.77036 10.8694 6.33127 10.8694H32.8548C35.7164 10.8694 38.282 12.1592 40 14.1889Z" fill="white"/>
<defs>
<linearGradient id="paint0_linear_991_14815" x1="2.33399" y1="37.6661" x2="37.6662" y2="2.33408" gradientUnits="userSpaceOnUse">
<stop stop-color="#E63C06"/>
<stop offset="1" stop-color="#F7BE4C"/>
</linearGradient>
</defs>
</svg>
