<svg width="40" height="40" viewBox="0 0 40 40" fill="none" xmlns="http://www.w3.org/2000/svg">
<path d="M36.4705 29.6172C37.0476 30.5628 37.0476 31.7602 36.4705 32.7057C35.8962 33.5949 32.7665 36.9994 31.7329 38.0933C30.8371 39.0409 29.6254 40.0002 28.4252 40.0002H3.5662C0.200966 40.0002 0 38.8303 0 36.2214V25.5809C0 22.9076 0.775217 22.1295 3.078 22.1295H28.4826C29.6713 22.1295 30.7337 22.7497 31.9281 24.0015C32.9733 25.072 36.0569 28.9854 36.4705 29.6172Z" fill="#33CCCC"/>
<path d="M5.64519 26.2416V26.1772C5.64519 25.8322 5.64519 25.4987 5.07105 25.4987H2.9865C2.49841 25.4987 2.47534 25.7678 2.47534 26.1889V28.9968C3.29764 27.8308 4.38536 26.8853 5.64519 26.2416Z" fill="white"/>
<path d="M19.605 36.3966V36.2445V29.4706C19.605 26.6354 18.3761 25.2179 15.9183 25.2179C15.2343 25.2262 14.566 25.4288 13.9889 25.8029C13.3529 26.207 12.7848 26.7126 12.3063 27.3004C12.0897 26.665 11.6688 26.123 11.1118 25.7619C10.4785 25.4063 9.76143 25.2343 9.03888 25.2647C7.97602 25.2688 6.94433 25.6307 6.10444 26.2942C5.92065 26.4815 2.46947 29.2191 2.46947 32.0737V36.4082C2.46947 36.5428 2.40048 37.0694 2.98052 37.0694H5.14543C5.81732 37.0694 5.75412 36.6188 5.75412 36.4317V29.4121C6.11592 28.9149 6.8567 27.7275 8.07987 27.7275C8.47822 27.6904 8.86498 27.8763 9.09049 28.213C9.33612 28.7123 9.44323 29.2706 9.40058 29.8274V35.2969V36.42C9.40058 36.5546 9.33169 37.0811 9.91173 37.0811H12.0537C12.7256 37.0811 12.6624 36.6306 12.6624 36.4434V36.2914V29.3887C13.0528 28.8915 13.8108 27.704 14.988 27.704C15.3906 27.6704 15.7809 27.8548 16.0159 28.1895C16.2654 28.6876 16.3748 29.2464 16.3318 29.804V35.2735V36.3966C16.3318 36.5312 16.2629 37.0576 16.8428 37.0576H19.0078C19.6853 37.0225 19.605 36.5778 19.605 36.3966Z" fill="white"/>
<path d="M26.5363 27.5233C25.2212 27.5233 24.3311 28.4534 24.1358 29.9861H28.8447C28.724 28.6465 28.012 27.5233 26.5363 27.5233ZM31.5437 33.6421C30.7887 35.7101 28.8027 37.0391 26.6396 36.9237C23.3319 36.9237 21.1268 34.6307 21.1268 31.1911C21.1268 27.7514 23.4238 25.3414 26.5248 25.3414C29.6256 25.3414 31.6929 27.5291 31.825 31.0565C31.825 31.507 31.716 31.9047 31.1589 31.9047H24.1416C24.1876 33.7942 25.0776 34.8295 26.6626 34.8295C27.5217 34.8514 28.3153 34.3629 28.6954 33.5777C28.8443 33.3567 29.0927 33.227 29.3558 33.2326H31.1646C31.3643 33.223 31.5337 33.3799 31.5431 33.5833C31.5444 33.6108 31.5426 33.6384 31.5379 33.6655L31.5437 33.6421Z" fill="white"/>
<path d="M22.7522 14.6288C22.7522 14.6288 22.1205 15.9743 19.8809 15.9743C19.344 15.9994 18.813 15.8499 18.365 15.5472C17.9643 15.2302 17.7483 14.7285 17.7907 14.2135C17.7403 13.5167 18.1171 12.8605 18.7382 12.5639C19.6442 12.2093 20.6109 12.0442 21.5807 12.0783C22.1483 11.9912 22.6779 12.3891 22.7636 12.9674C22.7716 13.0216 22.7755 13.0764 22.7751 13.1313L22.7522 14.6288ZM26.0886 7.10619C25.9666 6.81059 25.8 6.53624 25.5947 6.29311C25.3872 6.06779 25.1517 5.87112 24.8941 5.70804C24.616 5.51512 24.3197 5.35053 24.0098 5.21674C23.6942 5.09217 23.3698 4.99238 23.0393 4.91846C22.6611 4.83316 22.2773 4.7764 21.8908 4.74883C21.4774 4.70591 21.0142 4.68434 20.5011 4.68434C17.0787 4.68434 15.13 5.78411 14.6553 7.98364C14.578 8.29694 14.7645 8.61485 15.0721 8.69371C15.1012 8.70112 15.1308 8.70627 15.1607 8.70895H17.2682C17.8424 8.70895 17.8424 8.52762 18.0607 8.02452C18.1563 7.7507 18.3278 7.5109 18.5544 7.3343C19.093 6.98022 19.7298 6.81392 20.3691 6.86049C20.9653 6.79847 21.5641 6.94932 22.0631 7.28752C22.4437 7.64942 22.6687 8.14973 22.689 8.67976C22.689 9.40507 22.4709 9.88479 21.5865 9.88479C19.4905 9.80871 17.2394 10.0485 15.9703 10.7914C14.6987 11.5822 13.9404 13.0065 13.9835 14.5235C13.969 15.1041 14.0848 15.6803 14.3223 16.2083C14.5459 16.6671 14.8701 17.0674 15.2698 17.3782C15.6893 17.7268 16.1737 17.9854 16.6939 18.1386C17.2815 18.3007 17.8882 18.3794 18.497 18.3726C19.316 18.3856 20.1318 18.2671 20.9146 18.0217C21.6065 17.7329 22.2604 17.3576 22.8613 16.9043V17.3137C22.8613 17.7175 22.9819 18.0801 23.4356 18.0801H25.8761C26.37 18.0801 26.4848 17.7233 26.4848 17.2786V9.62149C26.4877 9.14392 26.4551 8.66678 26.3872 8.19415C26.333 7.82012 26.2326 7.45457 26.0886 7.10619ZM29.4766 20.3439C29.2845 20.3387 29.0928 20.323 28.9024 20.2972C28.667 20.2621 28.219 20.2972 28.219 20.7066V22.4615C28.219 23.1342 28.5406 23.181 28.7071 23.2279C29.2389 23.3467 29.782 23.4056 30.3265 23.4033C30.97 23.4205 31.6085 23.2864 32.1928 23.0114C32.7273 22.7363 33.2019 22.3543 33.5882 21.8882C34.0263 21.378 34.3969 20.8116 34.6908 20.2036C35.0086 19.5562 35.311 18.8406 35.5981 18.0567L35.9311 17.1266C35.2651 17.7993 32.3249 20.6247 29.4766 20.3439ZM39.457 5.00612H37.2174C36.7762 4.97672 36.3784 5.27575 36.2757 5.71394L33.6744 13.0143C33.6744 13.0143 31.3774 6.36328 31.2051 5.84848C31.1054 5.35912 30.685 5.00633 30.1945 5.00032H28.1329C27.3978 5.00032 27.3978 5.58518 27.4955 5.8134C27.5931 6.04151 30.4126 13.9152 31.5152 16.9278C31.6888 17.2986 31.8106 17.6925 31.877 18.0976C31.8054 18.4977 31.6571 18.8793 31.4406 19.2208C31.3567 19.3655 31.2607 19.5026 31.1535 19.6302C33.2781 18.9868 35.7473 16.6411 36.9878 14.1082C38.2396 10.5984 39.8877 5.91866 39.9624 5.67885C40.0428 5.3103 40.0428 5.00612 39.457 5.00612ZM3.78482 15.1728C2.36879 14.6524 1.07978 13.8263 0.00627804 12.751V17.3431C-0.0429102 17.7014 0.202294 18.0326 0.55409 18.0827C0.562832 18.084 0.571679 18.0851 0.580632 18.086H3.17613C3.86529 18.086 3.78482 17.3372 3.78482 17.3372V15.1728ZM9.57902 7.19975C9.37868 7.55082 9.08103 7.83364 8.72333 8.01283C8.33583 8.20145 7.91705 8.31454 7.48868 8.34629C7.01828 8.40595 6.54452 8.43524 6.07033 8.43406H4.41647C4.02033 8.43406 3.77344 8.10638 3.77344 7.62678V3.70754C3.75195 3.38522 3.99105 3.10615 4.30756 3.08437C4.3439 3.0819 4.38034 3.08298 4.41647 3.08748H6.07033C6.60624 3.08748 7.1116 3.10304 7.58632 3.13426C8.00942 3.15497 8.42473 3.25819 8.80949 3.43844C9.1636 3.59906 9.45894 3.86923 9.65369 4.21053C9.87351 4.66836 9.97431 5.17586 9.94651 5.68475C9.95767 6.2121 9.83086 6.73302 9.57902 7.19395V7.19975ZM12.944 2.31529C12.6674 1.85907 12.3067 1.46187 11.8817 1.14535C11.4526 0.846428 10.9823 0.613813 10.4863 0.455126C9.94735 0.275515 9.3909 0.155882 8.82676 0.0982647C8.16646 0.0327072 7.50332 0.00148582 6.83986 0.00470543H1.09737C0.547981 -0.0481911 0.0605223 0.362638 0.00859559 0.922285C0.00775297 0.932264 0.00691001 0.942242 0.00627804 0.952328V1.0049V10.5048C0.802453 12.245 2.12453 13.68 3.77913 14.5996V12.6926C3.72615 12.0747 4.17495 11.53 4.78164 11.4761C4.78248 11.476 4.78322 11.476 4.78406 11.4759H6.50681C8.85742 11.4759 10.6509 10.9747 11.8875 9.97255C13.124 8.97021 13.7518 7.48451 13.771 5.51512C13.773 4.94753 13.7075 4.38188 13.5757 3.83039C13.4445 3.29467 13.2313 2.78352 12.944 2.31529Z" fill="#333333"/>
</svg>
